<mxfile host="app.diagrams.net" agent="Mozilla/5.0 (X11; Linux x86_64; rv:133.0) Gecko/20100101 Firefox/133.0" version="25.0.3">
  <diagram name="Page-1" id="3V8vz6xEhUbXwEFhNSxs">
    <mxGraphModel dx="2261" dy="760" grid="1" gridSize="10" guides="1" tooltips="1" connect="1" arrows="1" fold="1" page="1" pageScale="1" pageWidth="827" pageHeight="1169" math="0" shadow="0">
      <root>
        <mxCell id="0" />
        <mxCell id="1" parent="0" />
        <mxCell id="BuL4cJ5vDAZep0cfOdnn-6" style="edgeStyle=orthogonalEdgeStyle;rounded=1;orthogonalLoop=1;jettySize=auto;html=1;curved=0;" parent="1" source="BuL4cJ5vDAZep0cfOdnn-1" target="BuL4cJ5vDAZep0cfOdnn-3" edge="1">
          <mxGeometry relative="1" as="geometry" />
        </mxCell>
        <mxCell id="BuL4cJ5vDAZep0cfOdnn-7" value="&lt;div&gt;Keyboard,&lt;/div&gt;&lt;div&gt;Mouse,&lt;/div&gt;&lt;div&gt;Touchpad,&lt;/div&gt;&lt;div&gt;Screen&lt;br&gt;&lt;/div&gt;" style="edgeLabel;html=1;align=center;verticalAlign=middle;resizable=0;points=[];" parent="BuL4cJ5vDAZep0cfOdnn-6" vertex="1" connectable="0">
          <mxGeometry x="0.0099" y="-1" relative="1" as="geometry">
            <mxPoint as="offset" />
          </mxGeometry>
        </mxCell>
        <mxCell id="BuL4cJ5vDAZep0cfOdnn-1" value="User" style="shape=umlActor;verticalLabelPosition=bottom;verticalAlign=top;html=1;" parent="1" vertex="1">
          <mxGeometry x="90" y="650" width="30" height="60" as="geometry" />
        </mxCell>
        <mxCell id="BuL4cJ5vDAZep0cfOdnn-2" value="LCMS Technical Context" style="shape=umlFrame;whiteSpace=wrap;html=1;pointerEvents=0;width=150;height=30;" parent="1" vertex="1">
          <mxGeometry x="-100" y="150" width="920" height="610" as="geometry" />
        </mxCell>
        <mxCell id="BuL4cJ5vDAZep0cfOdnn-180" value="" style="group" parent="1" vertex="1" connectable="0">
          <mxGeometry x="-60" y="205" width="430" height="370" as="geometry" />
        </mxCell>
        <mxCell id="BuL4cJ5vDAZep0cfOdnn-3" value="&lt;div&gt;&amp;lt;&amp;lt;device&amp;gt;&amp;gt;&lt;/div&gt;&lt;div&gt;User&#39;s Device&lt;/div&gt;" style="verticalAlign=top;align=left;spacingTop=8;spacingLeft=2;spacingRight=12;shape=cube;size=10;direction=south;fontStyle=4;html=1;whiteSpace=wrap;" parent="BuL4cJ5vDAZep0cfOdnn-180" vertex="1">
          <mxGeometry width="330" height="300" as="geometry" />
        </mxCell>
        <mxCell id="BuL4cJ5vDAZep0cfOdnn-5" value="&lt;div&gt;&amp;lt;&amp;lt;executionEnviroment&amp;gt;&amp;gt;&lt;/div&gt;&lt;div&gt;Browser&lt;br&gt;&lt;/div&gt;" style="verticalAlign=top;align=left;spacingTop=8;spacingLeft=2;spacingRight=12;shape=cube;size=10;direction=south;fontStyle=4;html=1;whiteSpace=wrap;" parent="BuL4cJ5vDAZep0cfOdnn-180" vertex="1">
          <mxGeometry x="10" y="50" width="290" height="210" as="geometry" />
        </mxCell>
        <mxCell id="BuL4cJ5vDAZep0cfOdnn-8" value="&lt;div&gt;&amp;lt;&amp;lt;artifact&amp;gt;&amp;gt;&lt;/div&gt;&lt;div&gt;StudyCourse Frontend&lt;br&gt;&lt;/div&gt;" style="verticalAlign=top;align=left;spacingTop=8;spacingLeft=2;spacingRight=12;shape=cube;size=10;direction=south;fontStyle=4;html=1;whiteSpace=wrap;" parent="BuL4cJ5vDAZep0cfOdnn-180" vertex="1">
          <mxGeometry x="45" y="120" width="220" height="115" as="geometry" />
        </mxCell>
        <mxCell id="BuL4cJ5vDAZep0cfOdnn-14" value="&lt;div&gt;&amp;lt;&amp;lt;device&amp;gt;&amp;gt;&lt;/div&gt;&lt;div&gt;Backend Server&lt;br&gt;&lt;/div&gt;" style="verticalAlign=top;align=left;spacingTop=8;spacingLeft=2;spacingRight=12;shape=cube;size=10;direction=south;fontStyle=4;html=1;whiteSpace=wrap;" parent="1" vertex="1">
          <mxGeometry x="400" y="200" width="360" height="290" as="geometry" />
        </mxCell>
        <mxCell id="BuL4cJ5vDAZep0cfOdnn-15" value="&lt;div&gt;&amp;lt;&amp;lt;container&amp;gt;&amp;gt;&lt;/div&gt;&lt;div&gt;Podman Container&lt;br&gt;&lt;/div&gt;" style="verticalAlign=top;align=left;spacingTop=8;spacingLeft=2;spacingRight=12;shape=cube;size=10;direction=south;fontStyle=4;html=1;whiteSpace=wrap;" parent="1" vertex="1">
          <mxGeometry x="410" y="250" width="330" height="230" as="geometry" />
        </mxCell>
        <mxCell id="BuL4cJ5vDAZep0cfOdnn-16" value="&lt;div&gt;&amp;lt;&amp;lt;artifact&amp;gt;&amp;gt;&lt;/div&gt;&lt;div&gt;StudyBase&lt;br&gt;&lt;/div&gt;" style="verticalAlign=top;align=left;spacingTop=8;spacingLeft=2;spacingRight=12;shape=cube;size=10;direction=south;fontStyle=4;html=1;whiteSpace=wrap;" parent="1" vertex="1">
          <mxGeometry x="465" y="320" width="220" height="120" as="geometry" />
        </mxCell>
        <mxCell id="S3LI5fGT9TNM7MEWfCCG-3" style="edgeStyle=orthogonalEdgeStyle;rounded=0;orthogonalLoop=1;jettySize=auto;html=1;" edge="1" parent="1" source="BuL4cJ5vDAZep0cfOdnn-8" target="BuL4cJ5vDAZep0cfOdnn-16">
          <mxGeometry relative="1" as="geometry" />
        </mxCell>
        <mxCell id="S3LI5fGT9TNM7MEWfCCG-4" value="HTTP/HTTPS" style="edgeLabel;html=1;align=center;verticalAlign=middle;resizable=0;points=[];" vertex="1" connectable="0" parent="S3LI5fGT9TNM7MEWfCCG-3">
          <mxGeometry x="-0.0286" y="2" relative="1" as="geometry">
            <mxPoint y="1" as="offset" />
          </mxGeometry>
        </mxCell>
        <mxCell id="S3LI5fGT9TNM7MEWfCCG-5" value="" style="group" vertex="1" connectable="0" parent="1">
          <mxGeometry x="452.5" y="560" width="255" height="180" as="geometry" />
        </mxCell>
        <mxCell id="BuL4cJ5vDAZep0cfOdnn-181" value="&lt;div&gt;&amp;lt;&amp;lt;device&amp;gt;&amp;gt;&lt;/div&gt;&lt;div&gt;Database Server&lt;br&gt;&lt;/div&gt;" style="verticalAlign=top;align=left;spacingTop=8;spacingLeft=2;spacingRight=12;shape=cube;size=10;direction=south;fontStyle=4;html=1;whiteSpace=wrap;" parent="S3LI5fGT9TNM7MEWfCCG-5" vertex="1">
          <mxGeometry width="255" height="180" as="geometry" />
        </mxCell>
        <mxCell id="BuL4cJ5vDAZep0cfOdnn-183" value="«Database»&lt;br&gt;&lt;div&gt;&lt;b&gt;StudyBase DB&lt;/b&gt;&lt;/div&gt;(PostgreSQL)" style="html=1;dropTarget=0;whiteSpace=wrap;" parent="S3LI5fGT9TNM7MEWfCCG-5" vertex="1">
          <mxGeometry x="37.5" y="50" width="180" height="90" as="geometry" />
        </mxCell>
        <mxCell id="BuL4cJ5vDAZep0cfOdnn-184" value="" style="shape=module;jettyWidth=8;jettyHeight=4;" parent="BuL4cJ5vDAZep0cfOdnn-183" vertex="1">
          <mxGeometry x="1" width="20" height="20" relative="1" as="geometry">
            <mxPoint x="-27" y="7" as="offset" />
          </mxGeometry>
        </mxCell>
        <mxCell id="BuL4cJ5vDAZep0cfOdnn-185" style="edgeStyle=orthogonalEdgeStyle;rounded=0;orthogonalLoop=1;jettySize=auto;html=1;startArrow=classic;startFill=1;" parent="1" source="BuL4cJ5vDAZep0cfOdnn-183" target="BuL4cJ5vDAZep0cfOdnn-16" edge="1">
          <mxGeometry relative="1" as="geometry">
            <Array as="points">
              <mxPoint x="590" y="645" />
            </Array>
            <mxPoint x="690" y="517.5" as="targetPoint" />
          </mxGeometry>
        </mxCell>
        <mxCell id="BuL4cJ5vDAZep0cfOdnn-186" value="&lt;div&gt;Postgres Protocol&lt;/div&gt;&lt;div&gt;(TCP/IP)&lt;br&gt;&lt;/div&gt;" style="edgeLabel;html=1;align=center;verticalAlign=middle;resizable=0;points=[];" parent="BuL4cJ5vDAZep0cfOdnn-185" vertex="1" connectable="0">
          <mxGeometry x="-0.197" y="-2" relative="1" as="geometry">
            <mxPoint as="offset" />
          </mxGeometry>
        </mxCell>
      </root>
    </mxGraphModel>
  </diagram>
</mxfile>
